<?xml version="1.0" encoding="utf-8"?>
<!-- Generator: Adobe Illustrator 25.2.1, SVG Export Plug-In . SVG Version: 6.00 Build 0)  -->
<svg version="1.1" id="Layer_1" xmlns="http://www.w3.org/2000/svg" xmlns:xlink="http://www.w3.org/1999/xlink" x="0px" y="0px"
	 viewBox="0 0 23.3 23.3" style="enable-background:new 0 0 23.3 23.3;" xml:space="preserve">
<g>
	<g>
		<path d="M20.4,8c0-0.1,0-0.1-0.1-0.2c-0.6-0.3-1.8,0.8-1.9,1C18,9,17.6,9.1,17.1,9.3c0-0.1,0-0.1-0.1-0.1
			c-0.6-0.3-1.6,0.6-1.9,0.9c-0.8,0.3-1.6,0.6-2.5,0.9c0,0,0-0.1,0-0.1c1.2-0.7,2.3-1.4,3.4-2.1c0.1,0,0.1,0,0.2,0
			c0.4-0.1,0.7-0.3,1-0.5c0.3-0.2,0.4-0.4,0.5-0.7c0-0.1,0-0.1-0.1-0.2c-0.6-0.2-1.5,1-1.7,1.4c-1.1,0.7-2.2,1.4-3.3,2
			c0,0,0,0,0-0.1c0.4-0.3,0.7-0.7,1.1-1c0.1,0,0.1,0,0.2,0c0.3-0.1,0.6-0.3,0.9-0.6c0.2-0.2,0.3-0.4,0.4-0.7
			c0.6-0.6,1.2-1.2,1.8-1.8c0,0,0.1,0,0.1,0C17.4,6.5,17.7,6.3,18,6c0.2-0.2,0.4-0.5,0.4-0.8c0-0.1-0.1-0.1-0.1-0.2
			c-0.7-0.1-1.4,1.2-1.5,1.6c-0.6,0.5-1.1,1.1-1.7,1.6c0,0,0,0-0.1,0c-0.7-0.1-1.4,1.2-1.5,1.5c-0.3,0.3-0.7,0.6-1,0.9l0,0
			c0.9-1.1,1.6-2.3,2.5-3.4c0.1,0,0.1,0,0.2-0.1c0.3-0.2,0.6-0.5,0.8-0.8c0.2-0.2,0.3-0.5,0.2-0.8c0-0.1-0.1-0.1-0.2-0.1
			c-0.6,0-1,1.2-1.2,1.7c-0.8,1.1-1.6,2.3-2.4,3.4c0,0,0,0,0,0c0.8-1.7,1.5-3.3,2.3-5c0.1,0,0.1,0,0.2-0.1c0.3-0.3,0.5-0.6,0.7-1
			c0.1-0.3,0.3-0.7,0.1-1c0-0.1-0.1-0.1-0.2-0.1c-0.7,0.1-0.9,1.5-1,2.1c-0.5,1.2-1,2.3-1.5,3.5c0.3-0.9,0.5-1.8,0.8-2.7
			c0,0,0.1-0.1,0.1-0.1c0.3-0.3,0.5-0.7,0.6-1.1c0.1-0.3,0.2-0.7,0-1C14.2,4.1,14.1,4,14,4c-0.6,0.2-0.7,1.6-0.7,2.2
			c-0.4,1.3-0.7,2.6-1.1,3.9c0.2-1.8,0.3-3.6,0.5-5.5c0,0,0.1-0.1,0.1-0.2C12.9,4,13,3.6,13,3.2c0-0.3,0-0.7-0.3-0.9
			c-0.1,0-0.2-0.1-0.2,0c-0.5,0.3-0.3,1.5-0.2,2.1c-0.1,2-0.3,4-0.5,6c-0.1-1.2-0.2-2.4-0.4-3.7c0,0,0.1-0.1,0.1-0.2
			c0.1-0.4,0.2-0.8,0.1-1.2c-0.1-0.3-0.1-0.7-0.4-0.9c-0.1,0-0.2,0-0.2,0c-0.5,0.4-0.1,1.5,0.1,2.1c0.1,1.1,0.2,2.2,0.4,3.3
			C11,8.1,10.4,6.4,9.9,4.7c0,0,0-0.1,0-0.1c0-0.4,0-0.8-0.2-1.2C9.6,3.1,9.4,2.7,9.1,2.6c-0.1,0-0.2,0-0.2,0.1
			C8.5,3.2,9.2,4.4,9.6,4.8c0.6,1.7,1.1,3.4,1.6,5.1c-0.4-0.9-0.8-1.7-1.2-2.6c0-0.1,0-0.1,0-0.2C10,6.8,9.9,6.4,9.8,6
			C9.6,5.7,9.4,5.4,9.1,5.3c-0.1,0-0.2,0-0.2,0.1C8.6,5.9,9.2,6.8,9.6,7.3c0.5,1,0.9,1.9,1.4,2.8C9.9,8.6,8.6,7.1,7.5,5.5
			c0,0,0-0.1,0-0.1C7.5,5,7.3,4.6,7,4.3C6.8,4,6.6,3.7,6.3,3.7c-0.1,0-0.2,0-0.2,0.1C5.8,4.4,6.9,5.4,7.3,5.7c1.2,1.7,2.6,3.3,3.7,5
			c0,0,0,0,0,0c-0.3-0.3-0.7-0.7-1-1C9.9,9.3,9.7,9,9.4,8.7C9.2,8.5,9,8.4,8.7,8.3L8.2,7.8c0,0,0-0.1,0-0.1C8,7.3,7.8,7,7.5,6.7
			C7.3,6.5,7,6.2,6.6,6.2c-0.1,0-0.2,0.1-0.2,0.1C6.3,7,7.5,7.8,8,8c0.1,0.1,0.3,0.2,0.4,0.4c0,0,0,0,0,0c-0.2,0.8,1.7,1.8,1.8,1.8
			l0.6,0.6C9.2,9.7,7.6,8.7,5.9,7.6c0,0,0-0.1,0-0.1C5.7,7.1,5.4,6.8,5.1,6.5C4.8,6.4,4.5,6.1,4.1,6.2C4.1,6.2,4,6.3,4,6.4
			c0,0.7,1.3,1.3,1.8,1.4c1.5,1,3,2,4.4,3c-0.2-0.1-0.5-0.2-0.7-0.3c-0.2-0.2-0.4-0.4-0.7-0.5C8.7,9.9,8.5,9.9,8.2,10
			C7.7,9.7,7.1,9.5,6.5,9.2c0-0.1,0-0.1-0.1-0.1c-0.3-0.3-0.6-0.6-1-0.7c-0.3-0.1-0.6-0.3-1-0.1c-0.1,0-0.1,0.1-0.1,0.2
			c0.1,0.7,1.7,1,2.2,1.1l1.7,0.7c0.2,0.4,1.2,0.6,1.5,0.6c0.4,0.2,0.7,0.3,1.1,0.5v0c-2.1-0.5-4.2-0.9-6.3-1.3c0,0-0.1-0.1-0.1-0.1
			C4,9.7,3.6,9.5,3.2,9.4c-0.3-0.1-0.7-0.1-1,0.1c-0.1,0-0.1,0.1-0.1,0.2c0.3,0.7,2.1,0.6,2.4,0.5c1.9,0.4,3.7,0.7,5.6,1.2
			c-1.2-0.1-2.4-0.1-3.6-0.1c0-0.1-0.1-0.1-0.1-0.1c-0.4-0.2-0.8-0.3-1.2-0.3c-0.3,0-0.7,0-0.9,0.2c-0.1,0.1-0.1,0.1,0,0.2
			c0.4,0.7,2.1,0.3,2.5,0.1c1.3,0,2.7,0.1,4,0.2c0,0,0,0,0,0.1c-2,0.3-4,0.6-5.9,1c0-0.1-0.1-0.1-0.2-0.1c-0.4-0.1-0.8,0-1.2,0.1
			c-0.3,0.1-0.7,0.2-0.8,0.5c0,0.1,0,0.2,0,0.2C3.2,13.9,4.7,13,5,12.8c1.7-0.3,3.3-0.6,5-0.9c-1.2,0.4-2.4,0.8-3.6,1.2
			c0,0-0.1-0.1-0.2-0.1c-0.4,0-0.7,0-1,0.2c-0.3,0.1-0.5,0.3-0.7,0.5c0,0.1,0,0.1,0.1,0.2c0.5,0.4,1.7-0.5,2-0.7
			c1.4-0.5,2.8-1,4.3-1.4c0,0,0,0,0.1,0c0,0,0,0,0,0.1c-0.3,0.1-0.5,0.3-0.8,0.4c0,0-0.1-0.1-0.2-0.1c-0.4,0-0.7,0.2-1,0.4
			c-0.2,0.2-0.5,0.3-0.5,0.6v0l-2.3,1.3c-0.1-0.1-0.2-0.1-0.2,0c0,0,0,0,0,0c-0.4,0.1-1.7,0.4-1.4,1.1v0c0,0.1,0.1,0.1,0.1,0.2
			c0.5,0.5,1.3-0.6,1.6-0.9c0.1-0.1,0.1-0.2,0-0.2c0.8-0.4,1.5-0.9,2.3-1.3c0,0,0,0,0,0c0.6,0.2,1.4-0.7,1.7-1
			c0.2-0.1,0.5-0.3,0.8-0.4c0,0.1,0.1,0.1,0.1,0.2C10,13.1,8.9,14,7.9,15c-0.1,0-0.1,0-0.2,0c-0.3,0.1-0.6,0.3-0.9,0.6
			c-0.2,0.2-0.4,0.5-0.4,0.7c0,0.1,0.1,0.1,0.1,0.1c0.6,0.1,1.3-1,1.5-1.4c1-0.9,2.1-1.9,3.2-2.8c0,0,0,0,0.1,0
			c-1.3,1.6-2.5,3.2-3.7,4.9c-0.1,0-0.1,0-0.2,0.1c-0.3,0.2-0.6,0.4-0.8,0.7c-0.2,0.2-0.3,0.5-0.2,0.8c0,0.1,0.1,0.1,0.1,0.1
			c0.6,0,1-1.1,1.2-1.6c1.1-1.5,2.3-3.1,3.4-4.6c-0.2,0.4-0.4,0.8-0.6,1.2c0,0,0,0,0,0c-0.3,0.2-0.5,0.5-0.7,0.8
			c-0.2,0.2-0.2,0.5-0.2,0.8c0,0,0,0,0,0.1c-0.1,0.3-0.3,0.6-0.4,0.9c0,0-0.1,0-0.1,0.1c-0.3,0.2-0.5,0.5-0.6,0.9
			c-0.1,0.3-0.2,0.5-0.1,0.8c0,0.1,0.1,0.1,0.2,0.1c0.6-0.1,0.9-1.3,0.9-1.8l0.5-1c0.6-0.2,0.9-1.7,0.9-1.9l0.3-0.5
			c-0.1,0.4-0.1,0.8-0.2,1.3c-0.3,1.2-0.6,2.5-0.9,3.7L10,18.2c-0.2,0.3-0.4,0.6-0.4,1c-0.1,0.3-0.1,0.6,0.1,0.8
			c0,0.1,0.1,0.1,0.2,0.1c0.5-0.2,0.6-1.3,0.5-1.8c0.2-0.8,0.4-1.5,0.6-2.3c-0.1,1.6-0.1,3.1,0,4.7c0,0.9,0,1.7,0,2.6
			C4.5,22.8-0.4,17.3,0,10.9S6-0.4,12.4,0s11.3,6,10.8,12.4c-0.4,6.1-5.5,10.9-11.6,10.9h-0.1c0-0.5,0-1,0-1.5c0-0.3,0-0.7,0-1
			c-0.1-1.6-0.1-3.2,0-4.7c0.1-0.7,0.1-1.4,0.2-2.1c0-0.3,0.1-0.7,0.1-1c0.2,1.7,0.4,3.4,0.6,5.1c0,0,0,0.1-0.1,0.1
			c-0.1,0.3-0.2,0.7-0.1,1.1c0,0.3,0.1,0.6,0.3,0.8c0.1,0,0.1,0,0.2,0c0.4-0.3,0.2-1.3,0-1.8c-0.2-1.3-0.3-2.7-0.5-4
			c0.2,0.8,0.5,1.6,0.7,2.5c0,0.3,0,0.6,0.1,0.9c0,0,0,0.1,0,0.1c0,0,0,0.1,0.1,0.1c0.1,0.3,0.2,0.5,0.5,0.7c0.1,0,0.1,0,0.2,0
			c0.4-0.5-0.3-1.6-0.6-2c-0.3-1.2-0.7-2.4-1-3.6c0.8,1.6,1.6,3.1,2.4,4.6c0,0,0,0.1,0,0.1c0,0.4,0.2,0.7,0.4,1
			c0.1,0.1,0.2,0.3,0.3,0.4c0.1,0.1,0.2,0.1,0.3,0.2c0.1,0,0.1,0,0.2-0.1c0.2-0.5-0.5-1.3-0.9-1.7c-0.9-1.7-1.8-3.3-2.6-5
			c0.7,0.9,1.3,1.9,2,2.8c0,0,0,0.1,0,0.1c0.1,0.4,0.2,0.7,0.5,1c0.2,0.3,0.4,0.4,0.7,0.5c0.1,0,0.1,0,0.2-0.1
			c0.2-0.5-0.7-1.3-1.1-1.6c-0.7-0.9-1.3-1.8-2-2.7c1.4,1.4,2.9,2.6,4.3,3.9c0,0,0,0.1,0,0.1c0.2,0.3,0.4,0.6,0.7,0.8
			c0.2,0.2,0.5,0.3,0.8,0.3c0.1,0,0.1-0.1,0.1-0.2c0-0.6-1.1-1-1.6-1.2c-1.3-1.2-2.7-2.4-4-3.6c1,0.6,1.9,1.2,2.9,1.8
			c0,0,0,0.1,0.1,0.1c0.2,0.3,0.5,0.5,0.9,0.7c0.3,0.2,0.6,0.2,0.9,0.1c0.1,0,0.1-0.1,0.1-0.2c-0.1-0.6-1.3-0.9-1.8-1
			c-1.1-0.7-2.2-1.3-3.3-2c1.8,0.7,3.7,1.3,5.5,2c0,0,0,0,0,0c0.3,0.2,0.6,0.4,0.9,0.5l0,0h0c0.3,0.1,0.5,0.1,0.8,0
			c0.1,0,0.1-0.1,0.1-0.2c-0.2-0.7-1.8-0.7-2.1-0.7c-1.6-0.6-3.2-1.1-4.7-1.7c1.1,0.2,2.1,0.4,3.2,0.6c0,0,0,0,0.1,0.1
			c0.3,0.2,0.7,0.3,1,0.3c0.3,0.1,0.6,0,0.8-0.2c0-0.1,0.1-0.1,0-0.2c-0.3-0.6-1.9-0.3-2.2-0.2c-1.2-0.2-2.3-0.4-3.5-0.6v-0.1
			c1.8,0,3.7-0.1,5.5-0.1c0,0,0.1,0.1,0.1,0.1c0.3,0.1,0.7,0.2,1.1,0.1c0.3,0,0.6-0.1,0.8-0.3c0-0.1,0-0.1,0-0.2
			c-0.4-0.5-1.9,0-2.2,0.2c-1.6,0-3.1,0.1-4.6,0.1c1-0.2,2.1-0.4,3.1-0.6c0,0,0.1,0.1,0.2,0.1c0.4,0.1,0.7,0,1.1-0.1
			c0.3,0,0.6-0.2,0.7-0.5c0-0.1,0-0.1,0-0.2c-0.5-0.4-1.8,0.3-2.1,0.6c-1.2,0.2-2.5,0.5-3.7,0.7c0,0,0-0.1,0-0.1
			c0.9-0.3,1.7-0.6,2.5-1c0,0,0.1,0.1,0.2,0.1c0.4,0,0.7-0.1,1-0.3c0.2-0.1,0.4-0.3,0.6-0.5l1.5-0.6c0.1,0,0.1,0,0.2,0
			c0.4,0,0.7-0.1,1-0.3C20.1,8.4,20.4,8.3,20.4,8z"/>
	</g>
</g>
</svg>
